<?xml version="1.0" encoding="utf-8"?>
<!-- Generator: Adobe Illustrator 15.0.0, SVG Export Plug-In . SVG Version: 6.00 Build 0)  -->
<!DOCTYPE svg PUBLIC "-//W3C//DTD SVG 1.1//EN" "http://www.w3.org/Graphics/SVG/1.1/DTD/svg11.dtd">
<svg version="1.1" xmlns="http://www.w3.org/2000/svg" xmlns:xlink="http://www.w3.org/1999/xlink" x="0px" y="0px" width="119px"
	 height="169.5px" viewBox="0 0 119 169.5" enable-background="new 0 0 119 169.5" xml:space="preserve">
<g id="Ebene_6">
</g>
<g id="Bilder">
</g>
<g id="Texte">
</g>
<g id="Buttons">
</g>
<g id="Logo">
	<g>
		<g>
			<path fill="#A89B8A" d="M13.726,138.363l9.262-5.623l0.877,1.444l-8.047,4.887l1.935,3.186l-1.214,0.738L13.726,138.363z"/>
			<path fill="#A89B8A" d="M20.114,147.465l8.055-7.245l1.131,1.257l-8.055,7.246L20.114,147.465z"/>
			<path fill="#A89B8A" d="M32.83,146.67l-1.932,2.535l2.856,2.176l-0.844,1.107l-2.855-2.177l-2.93,3.845l-1.32-1.007l6.565-8.616
				l4.45,3.392l-0.861,1.13L32.83,146.67z"/>
			<path fill="#A89B8A" d="M35.577,159.641l4.416-9.892l5.191,2.319l-0.579,1.298l-3.675-1.64l-1.3,2.909l3.347,1.495l-0.566,1.269
				l-3.347-1.494l-1.391,3.116l3.675,1.64l-0.58,1.298L35.577,159.641z"/>
			<path fill="#A89B8A" d="M58.382,165.337c-2.334-0.071-4.225-1.927-4.109-5.712s2.115-5.521,4.449-5.45
				c0.958,0.03,1.819,0.295,2.317,0.64l-0.595,1.345c-0.322-0.249-0.915-0.477-1.588-0.498c-1.526-0.047-2.749,1.249-2.833,4.003
				c-0.083,2.751,1.058,4.119,2.583,4.166c0.674,0.021,1.278-0.155,1.614-0.386l0.511,1.396
				C60.214,165.153,59.368,165.366,58.382,165.337z"/>
			<path fill="#A89B8A" d="M70.815,163.957c-2.721,0.642-4.624-1.444-5.338-4.47c-0.712-3.027,0.062-5.743,2.782-6.383
				c2.721-0.642,4.625,1.444,5.338,4.471C74.311,160.6,73.538,163.316,70.815,163.957z M68.602,154.558
				c-1.586,0.373-2.021,2.241-1.479,4.542c0.542,2.299,1.766,3.776,3.352,3.403c1.586-0.372,2.021-2.241,1.479-4.541
				S70.188,154.186,68.602,154.558z"/>
			<path fill="#A89B8A" d="M86.966,156.96l-2.25-2.007l-3.482,1.989l0.587,2.958l-1.536,0.875L78.16,149.51l1.716-0.979l8.624,7.554
				L86.966,156.96z M80.633,151.183c-0.466-0.423-0.91-0.963-0.91-0.963l-0.027,0.017c0,0,0.237,0.656,0.366,1.273l0.848,4.169
				l2.885-1.648L80.633,151.183z"/>
			<path fill="#A89B8A" d="M96.054,149.583c-1.658,1.647-4.305,1.745-6.976-0.943c-2.669-2.687-2.555-5.335-0.897-6.981
				c0.681-0.676,1.466-1.117,2.058-1.243l0.568,1.358c-0.403,0.063-0.975,0.335-1.453,0.811c-1.085,1.077-0.984,2.855,0.958,4.811
				c1.941,1.953,3.721,2.064,4.804,0.988c0.479-0.474,0.766-1.035,0.83-1.437l1.364,0.586
				C97.182,148.127,96.754,148.887,96.054,149.583z"/>
			<path fill="#A89B8A" d="M104.35,137.967l-4.17-2.443l-2.012,3.434l4.17,2.443l-0.854,1.458l-9.345-5.476l0.854-1.458l3.976,2.329
				l2.012-3.433l-3.976-2.328l0.855-1.46l9.344,5.476L104.35,137.967z"/>
		</g>
		<g>
			<path fill="#A89B8A" d="M7.491,79.556c0-0.793,0.148-1.534,0.444-2.222c0.297-0.688,0.708-1.291,1.238-1.809l0.492,0.492
				c-0.54,0.444-0.963,0.971-1.271,1.579c-0.307,0.608-0.46,1.261-0.46,1.96c0,0.656,0.137,1.274,0.413,1.855
				c0.275,0.582,0.65,1.091,1.127,1.524c0.475,0.434,1.033,0.775,1.674,1.023c0.641,0.249,1.324,0.373,2.055,0.373
				s1.414-0.124,2.056-0.373c0.64-0.249,1.197-0.59,1.674-1.023s0.853-0.941,1.127-1.524c0.274-0.581,0.413-1.199,0.413-1.855
				c0-0.699-0.153-1.352-0.46-1.96c-0.308-0.608-0.731-1.134-1.271-1.579l0.508-0.492c0.519,0.518,0.926,1.121,1.223,1.809
				c0.296,0.688,0.443,1.429,0.443,2.222s-0.15,1.537-0.453,2.229c-0.301,0.693-0.707,1.296-1.221,1.809
				c-0.514,0.514-1.115,0.921-1.809,1.222c-0.693,0.303-1.438,0.453-2.23,0.453s-1.537-0.151-2.23-0.453
				c-0.691-0.302-1.295-0.708-1.809-1.222c-0.513-0.513-0.921-1.116-1.221-1.81C7.642,81.093,7.491,80.349,7.491,79.556z"/>
			<path fill="#A89B8A" d="M18.901,65.585v1.175c-1.598,0.624-3.185,1.243-4.761,1.856c-1.577,0.613-3.163,1.228-4.761,1.841
				l9.521,3.904v0.476L7.903,70.346v-0.492c1.842-0.708,3.674-1.417,5.5-2.126C15.228,67.019,17.06,66.305,18.901,65.585z"/>
			<path fill="#A89B8A" d="M7.936,61.676v-3.793H8.38v3.793h10.554v1.095H8.38v3.793H7.936v-3.793V61.676z"/>
			<path fill="#A89B8A" d="M13.823,48.998l-0.325,6.483l5.278,0.265l-0.055,1.093l-11-0.552l0.055-1.093l5.278,0.265l0.324-6.482
				L8.101,48.71l0.057-1.11l11,0.552l-0.056,1.11L13.823,48.998z"/>
			<path fill="#A89B8A" d="M21.702,38.711l-0.335,1.126c-1.709,0.143-3.407,0.282-5.093,0.42c-1.687,0.139-3.383,0.273-5.089,0.404
				l8.011,6.46l-0.137,0.457l-9.258-7.446l0.143-0.471c1.966-0.153,3.924-0.31,5.876-0.468
				C17.772,39.037,19.731,38.875,21.702,38.711z"/>
			<path fill="#A89B8A" d="M12.381,32.731l1.724-3.09c0.19-0.342,0.434-0.627,0.73-0.855s0.622-0.393,0.975-0.493
				c0.353-0.101,0.715-0.131,1.088-0.094c0.373,0.039,0.729,0.153,1.071,0.344c0.333,0.185,0.613,0.426,0.842,0.723
				c0.228,0.298,0.392,0.616,0.493,0.957c0.101,0.341,0.136,0.697,0.104,1.067c-0.03,0.37-0.134,0.724-0.31,1.062
				c0.434-0.302,0.898-0.539,1.395-0.711c0.496-0.172,1.008-0.275,1.535-0.308s1.055,0.009,1.581,0.127
				c0.528,0.12,1.037,0.314,1.526,0.588l0.139,0.077l-0.455,0.818l-0.14-0.078c-0.536-0.298-1.091-0.504-1.663-0.617
				c-0.572-0.114-1.132-0.142-1.68-0.084c-0.547,0.059-1.067,0.199-1.561,0.42c-0.493,0.223-0.928,0.519-1.305,0.89l-0.596,1.067
				l4.658,2.597l-0.533,0.958L12.381,32.731z M13.315,31.999l4.158,2.319l0.596-1.067l0.355-0.639
				c0.16-0.286,0.255-0.587,0.286-0.903c0.03-0.316,0.005-0.618-0.076-0.906c-0.082-0.287-0.219-0.557-0.411-0.81
				c-0.191-0.252-0.432-0.458-0.719-0.619c-0.285-0.159-0.588-0.254-0.902-0.285c-0.316-0.031-0.619-0.006-0.906,0.076
				c-0.289,0.082-0.559,0.219-0.811,0.412c-0.253,0.193-0.459,0.432-0.619,0.718L13.315,31.999z"/>
			<path fill="#A89B8A" d="M18.059,23.468l8.808,6.614l-0.658,0.875l-8.807-6.614L18.059,23.468z"/>
			<path fill="#A89B8A" d="M31.463,22.693l-6.724-6.651l0.313-0.315l7.187,7.108l0.643,0.636l-0.435,0.44l-10.874-2.006l6.499,6.429
				l-0.313,0.315l-6.973-6.896l-1.438-0.261l0.86-0.869L31.463,22.693z"/>
			<path fill="#A89B8A" d="M41.036,18.01l-0.994,0.625c-1.377-1.021-2.746-2.035-4.105-3.043c-1.357-1.008-2.722-2.025-4.091-3.051
				l1.761,10.139l-0.403,0.254L31.154,11.23l0.417-0.262c1.579,1.183,3.154,2.357,4.727,3.525
				C37.868,15.662,39.448,16.833,41.036,18.01z"/>
			<path fill="#A89B8A" d="M45.079,4.788l3.473-0.686c0.384-0.076,0.76-0.074,1.125,0.004c0.365,0.079,0.701,0.221,1.006,0.425
				c0.305,0.204,0.563,0.461,0.775,0.769c0.211,0.309,0.355,0.655,0.432,1.039c0.073,0.374,0.07,0.744-0.008,1.11
				c-0.078,0.366-0.215,0.697-0.41,0.995c-0.194,0.297-0.443,0.554-0.745,0.77c-0.302,0.217-0.64,0.367-1.012,0.451
				c0.513,0.136,0.995,0.337,1.446,0.604c0.452,0.267,0.861,0.589,1.227,0.971c0.367,0.379,0.675,0.81,0.928,1.288
				c0.25,0.479,0.43,0.993,0.539,1.544l0.03,0.155l-0.919,0.182l-0.03-0.155c-0.118-0.602-0.32-1.158-0.604-1.668
				c-0.285-0.51-0.626-0.955-1.025-1.334c-0.396-0.38-0.84-0.686-1.329-0.918c-0.488-0.232-0.995-0.372-1.522-0.419l-1.199,0.237
				l1.034,5.232l-1.073,0.212L45.079,4.788z M46.243,5.027l0.923,4.671l1.198-0.237l0.717-0.142
				c0.322-0.063,0.613-0.186,0.874-0.367s0.474-0.396,0.641-0.645c0.167-0.248,0.284-0.527,0.353-0.837
				c0.068-0.311,0.07-0.626,0.008-0.949c-0.064-0.322-0.187-0.613-0.367-0.874c-0.182-0.261-0.396-0.475-0.645-0.641
				c-0.248-0.167-0.528-0.285-0.838-0.353c-0.311-0.068-0.627-0.07-0.949-0.007L46.243,5.027z"/>
			<path fill="#A89B8A" d="M55.288,3.085l5.745-0.093l0.007,0.444l-4.824,0.079l0.08,4.839l3.553-0.058l0.008,0.445l-3.555,0.058
				l0.078,4.84l4.824-0.078l0.007,0.443l-4.823,0.078l-1.096,0.019L55.114,3.088L55.288,3.085z"/>
			<path fill="#A89B8A" d="M68.874,4.029l3.721,0.736l-0.087,0.436l-3.721-0.735l-2.046,10.352l-1.075-0.212l2.047-10.354
				l-3.721-0.735l0.086-0.436l3.721,0.735L68.874,4.029z"/>
			<path fill="#A89B8A" d="M78.112,6.792l3.515,1.426L81.46,8.63l-3.514-1.427l-3.97,9.778l-1.016-0.412l3.97-9.778l-3.515-1.427
				l0.169-0.411l3.513,1.426L78.112,6.792z"/>
			<path fill="#A89B8A" d="M84.685,9.993l-5.569,9.502l-0.944-0.553l5.566-9.503L84.685,9.993z"/>
			<path fill="#A89B8A" d="M87.456,11.605l4.549,3.51l-0.272,0.352l-3.819-2.948l-2.957,3.832l2.813,2.172l-0.271,0.352
				l-2.813-2.172l-2.958,3.831l3.818,2.948l-0.271,0.352l-3.819-2.948l-0.866-0.669l6.73-8.718L87.456,11.605z"/>
			<path fill="#A89B8A" d="M97.475,19.979c0.529,0.591,0.913,1.241,1.15,1.951c0.239,0.71,0.334,1.435,0.285,2.174l-0.694-0.038
				c0.105-0.691,0.069-1.366-0.108-2.024c-0.176-0.657-0.498-1.246-0.964-1.767c-0.438-0.489-0.952-0.858-1.546-1.108
				c-0.594-0.25-1.212-0.378-1.854-0.383c-0.646-0.005-1.288,0.112-1.932,0.354c-0.642,0.242-1.235,0.606-1.78,1.093
				c-0.544,0.487-0.971,1.037-1.281,1.649c-0.312,0.612-0.499,1.238-0.564,1.879c-0.065,0.641-0.006,1.27,0.177,1.888
				c0.183,0.617,0.494,1.169,0.932,1.657c0.466,0.521,1.016,0.905,1.65,1.153c0.634,0.249,1.301,0.358,1.999,0.329l-0.051,0.706
				c-0.732-0.04-1.438-0.218-2.116-0.532c-0.68-0.315-1.284-0.769-1.813-1.359c-0.531-0.591-0.915-1.245-1.151-1.962
				c-0.238-0.718-0.338-1.439-0.296-2.163c0.039-0.724,0.217-1.431,0.531-2.117c0.316-0.688,0.77-1.296,1.359-1.825
				c0.591-0.529,1.246-0.913,1.962-1.15c0.719-0.237,1.439-0.336,2.165-0.297c0.723,0.04,1.43,0.218,2.116,0.533
				C96.338,18.934,96.946,19.387,97.475,19.979z"/>
			<path fill="#A89B8A" d="M101.568,25.728l0.535,0.955l-6.136,3.434l8.6,0.971l0.272,0.484l-6.543-0.74
				c0.044,0.642,0.033,1.253-0.029,1.834s-0.202,1.129-0.417,1.643c-0.214,0.515-0.519,0.991-0.911,1.427
				c-0.392,0.438-0.892,0.827-1.501,1.168l-0.18,0.1l-0.458-0.816l0.181-0.102c0.509-0.284,0.954-0.628,1.342-1.031
				c0.386-0.404,0.698-0.841,0.94-1.309c0.24-0.469,0.407-0.956,0.499-1.463c0.094-0.506,0.101-1.011,0.026-1.514l-2.485-0.282
				l-2.811,1.573l-0.535-0.956L101.568,25.728z"/>
			<path fill="#A89B8A" d="M104.012,43.424l-0.74,0.238l-2.297-7.164l0.742-0.237L104.012,43.424z"/>
			<path fill="#A89B8A" d="M108.059,49.915c0.092-0.032,0.207-0.103,0.344-0.215c0.136-0.111,0.262-0.25,0.375-0.418
				c0.114-0.167,0.208-0.367,0.283-0.6c0.074-0.231,0.096-0.484,0.065-0.758s-0.106-0.51-0.226-0.709
				c-0.118-0.2-0.258-0.362-0.422-0.486c-0.164-0.125-0.337-0.215-0.518-0.269c-0.182-0.055-0.352-0.072-0.51-0.055
				c-0.157,0.019-0.315,0.061-0.473,0.127c-0.158,0.065-0.328,0.199-0.514,0.401c-0.185,0.202-0.392,0.486-0.621,0.854
				s-0.495,0.866-0.796,1.497c-0.271,0.615-0.607,1.112-1.011,1.488c-0.405,0.376-0.835,0.646-1.29,0.811
				c-0.456,0.163-0.917,0.224-1.385,0.182c-0.469-0.042-0.897-0.18-1.285-0.412c-0.389-0.233-0.716-0.553-0.979-0.959
				c-0.267-0.407-0.424-0.89-0.477-1.447c-0.028-0.242-0.019-0.515,0.026-0.818c0.046-0.304,0.146-0.616,0.3-0.937
				c0.155-0.321,0.37-0.633,0.646-0.936c0.272-0.303,0.62-0.569,1.041-0.798l0.055,0.473c-0.053,0.005-0.175,0.082-0.366,0.226
				c-0.19,0.144-0.386,0.344-0.586,0.602c-0.2,0.256-0.372,0.562-0.519,0.914s-0.2,0.739-0.163,1.16
				c0.043,0.56,0.23,1.009,0.563,1.35c0.33,0.34,0.726,0.549,1.181,0.623c0.455,0.077,0.931,0.015,1.424-0.186
				s0.918-0.555,1.277-1.064c0.274-0.383,0.502-0.763,0.685-1.14c0.18-0.377,0.361-0.736,0.548-1.076
				c0.184-0.342,0.391-0.652,0.619-0.935c0.229-0.281,0.524-0.506,0.889-0.676c0.344-0.166,0.694-0.236,1.055-0.208
				c0.361,0.028,0.694,0.131,1.003,0.309c0.307,0.178,0.57,0.415,0.791,0.709c0.219,0.294,0.367,0.623,0.44,0.988
				c0.036,0.229,0.049,0.464,0.04,0.706c-0.01,0.24-0.056,0.471-0.138,0.694c-0.08,0.222-0.192,0.429-0.335,0.621
				c-0.145,0.191-0.325,0.354-0.544,0.485l-0.471,0.069L108.059,49.915z"/>
			<path fill="#A89B8A" d="M109.938,53.007v1.095h-7.317c-0.442,0-0.861,0.085-1.253,0.255c-0.392,0.169-0.735,0.401-1.032,0.698
				c-0.295,0.296-0.529,0.642-0.697,1.039c-0.17,0.396-0.255,0.817-0.255,1.262s0.085,0.862,0.255,1.254
				c0.168,0.391,0.402,0.735,0.697,1.031c0.297,0.296,0.641,0.529,1.032,0.698c0.392,0.169,0.811,0.254,1.253,0.254h7.317v1.096
				h-6.666c-0.593,0-1.152-0.114-1.682-0.342c-0.529-0.229-0.993-0.538-1.39-0.929c-0.396-0.392-0.709-0.851-0.935-1.381
				c-0.229-0.529-0.343-1.089-0.343-1.682c0-0.603,0.113-1.167,0.343-1.69c0.226-0.524,0.538-0.984,0.935-1.381
				c0.396-0.396,0.86-0.709,1.39-0.936s1.089-0.341,1.682-0.341H109.938z M111.509,56.895c0,0.086-0.029,0.157-0.088,0.214
				c-0.057,0.058-0.128,0.088-0.214,0.088c-0.084,0-0.156-0.03-0.214-0.088c-0.058-0.058-0.087-0.128-0.087-0.214
				c0-0.084,0.029-0.155,0.087-0.214c0.058-0.058,0.13-0.086,0.214-0.086C111.408,56.594,111.509,56.693,111.509,56.895z
				 M111.509,58.022c0,0.2-0.101,0.301-0.302,0.301c-0.084,0-0.156-0.029-0.214-0.087c-0.058-0.059-0.087-0.13-0.087-0.214
				c0-0.085,0.029-0.156,0.087-0.215s0.13-0.088,0.214-0.088C111.408,57.72,111.509,57.821,111.509,58.022z"/>
			<path fill="#A89B8A" d="M109.97,63.974v5.745h-0.443l-0.002-4.824h-4.839v3.555h-0.444v-3.555h-5.285V63.8l11.014-0.001V63.974z"
				/>
			<path fill="#A89B8A" d="M109.97,70.93v1.095l-7.029,0l7.029,5.046v0.555l-5.349-3.84c-0.274,0.581-0.582,1.111-0.919,1.587
				c-0.34,0.476-0.729,0.886-1.167,1.23s-0.936,0.61-1.491,0.802c-0.556,0.189-1.183,0.285-1.883,0.285h-0.205v-0.936h0.205
				c0.582,0,1.142-0.083,1.675-0.246c0.535-0.165,1.022-0.392,1.461-0.683c0.438-0.291,0.823-0.634,1.15-1.031
				c0.328-0.397,0.582-0.833,0.762-1.309l-2.03-1.46h-3.223v-1.095L109.97,70.93z"/>
			<path fill="#A89B8A" d="M109.97,79.085v5.745h-0.445v-4.824h-4.839v3.555h-0.444v-3.555l-4.841,0v4.824h-0.444v-4.824v-1.095
				l11.014-0.001V79.085z"/>
		</g>
	</g>
	<g>
		<path fill="#A89B8A" d="M25.511,74.069c1.434,0.631,2.828,1.348,4.267,1.952c1.431,0.619,2.898,1.149,4.397,1.568
			c2.996,0.846,6.09,1.302,9.197,1.51c1.553,0.115,3.111,0.17,4.672,0.182c1.559,0.017,3.118-0.003,4.678-0.061
			c1.561-0.053,3.119-0.139,4.678-0.252c0.774-0.058,1.566-0.127,2.358-0.129c0.792-0.006,1.586,0.034,2.373,0.135
			c1.573,0.2,3.141,0.656,4.51,1.497c1.371,0.831,2.492,2.056,3.233,3.467c0.751,1.411,1.155,2.973,1.34,4.54
			c0.182,1.57,0.149,3.155-0.022,4.719c-0.177,1.563-0.492,3.109-0.931,4.618c-0.444,1.505-0.992,2.988-1.765,4.364
			c-0.813,1.346-1.697,2.638-2.651,3.884c-0.479,0.62-0.977,1.226-1.505,1.805c-0.532,0.576-1.078,1.141-1.709,1.615
			c-0.013,0.01-0.03,0.007-0.04-0.005c-0.01-0.013-0.007-0.031,0.005-0.04l0.002-0.002c0.615-0.475,1.156-1.047,1.679-1.626
			c0.519-0.583,1.008-1.193,1.478-1.817c0.934-1.25,1.804-2.557,2.593-3.898c0.744-1.366,1.271-2.845,1.694-4.343
			c0.416-1.501,0.711-3.037,0.865-4.585c0.156-1.547,0.173-3.111-0.021-4.649c-0.193-1.535-0.604-3.051-1.339-4.403
			c-0.728-1.352-1.806-2.506-3.122-3.288c-1.313-0.79-2.822-1.217-4.349-1.397c-0.766-0.088-1.538-0.12-2.312-0.104
			c-0.774,0.01-1.54,0.086-2.326,0.155c-1.562,0.131-3.127,0.236-4.693,0.308c-1.568,0.066-3.138,0.104-4.708,0.09
			c-1.571-0.021-3.142-0.083-4.708-0.206c-3.13-0.27-6.259-0.761-9.268-1.698c-1.504-0.469-2.972-1.045-4.392-1.713
			c-1.421-0.672-2.79-1.43-4.184-2.139c-0.015-0.007-0.021-0.025-0.013-0.039C25.48,74.068,25.497,74.063,25.511,74.069z"/>
		<path fill="#A89B8A" d="M25.67,80.611c3.196,0.58,6.413,1.04,9.646,1.233c3.233,0.201,6.478,0.188,9.702-0.079
			c1.613-0.124,3.221-0.306,4.82-0.547c1.6-0.235,3.193-0.522,4.773-0.871l1.187-0.265c0.405-0.087,0.81-0.162,1.216-0.224
			c0.814-0.125,1.638-0.198,2.463-0.209c1.648-0.021,3.313,0.211,4.872,0.784c1.556,0.565,2.994,1.481,4.132,2.688
			c0.569,0.602,1.066,1.275,1.474,1.991c0.411,0.713,0.771,1.45,1.092,2.204c0.641,1.507,1.125,3.076,1.47,4.674
			c0.343,1.598,0.545,3.228,0.561,4.864c0.005,0.817-0.037,1.637-0.144,2.449c-0.053,0.405-0.121,0.81-0.209,1.21
			c-0.086,0.402-0.198,0.796-0.305,1.187c-0.433,1.567-0.903,3.126-1.445,4.66c-0.544,1.533-1.159,3.046-1.919,4.486
			c-0.38,0.721-0.8,1.42-1.255,2.094c-0.455,0.675-0.947,1.322-1.43,1.975c-0.01,0.013-0.028,0.016-0.041,0.006
			c-0.012-0.009-0.015-0.027-0.006-0.04c0.475-0.659,0.96-1.312,1.404-1.988c0.446-0.678,0.856-1.378,1.225-2.1
			c0.741-1.442,1.335-2.956,1.858-4.489c0.522-1.536,0.974-3.095,1.388-4.664c0.454-1.556,0.624-3.169,0.591-4.783
			c-0.029-1.612-0.243-3.222-0.595-4.797c-0.354-1.575-0.848-3.119-1.49-4.597c-0.653-1.469-1.408-2.916-2.524-4.055
			c-1.103-1.149-2.486-2.015-3.987-2.544c-1.502-0.534-3.11-0.741-4.706-0.703c-0.799,0.02-1.598,0.1-2.387,0.23
			c-0.396,0.064-0.791,0.143-1.178,0.23l-1.188,0.279c-1.592,0.36-3.195,0.666-4.809,0.906c-1.615,0.236-3.238,0.413-4.865,0.528
			c-3.257,0.211-6.527,0.194-9.774-0.093c-1.623-0.145-3.24-0.35-4.846-0.612c-1.606-0.271-3.2-0.597-4.782-0.963
			c-0.017-0.003-0.025-0.019-0.023-0.034C25.64,80.619,25.655,80.609,25.67,80.611z"/>
		<path fill="#A89B8A" d="M26.531,86.962c1.66,0.065,3.319-0.033,4.97-0.199c1.652-0.16,3.297-0.39,4.932-0.668
			c3.27-0.558,6.517-1.267,9.697-2.194c1.592-0.45,3.158-0.993,4.75-1.494c1.592-0.497,3.206-0.952,4.859-1.26
			c1.65-0.303,3.348-0.454,5.037-0.298c1.686,0.151,3.354,0.634,4.836,1.46c1.487,0.818,2.778,1.953,3.864,3.235
			c1.089,1.284,1.987,2.713,2.758,4.197c0.771,1.486,1.414,3.032,1.975,4.603c0.275,0.787,0.555,1.574,0.758,2.392
			c0.205,0.813,0.348,1.642,0.437,2.475c0.177,1.666,0.145,3.346-0.03,5.006c-0.175,1.661-0.488,3.303-0.902,4.917
			c-0.413,1.614-0.926,3.202-1.516,4.758c-0.594,1.556-1.253,3.086-2.023,4.563c-0.007,0.014-0.024,0.019-0.039,0.012
			c-0.013-0.007-0.019-0.025-0.012-0.039c0.751-1.481,1.392-3.019,1.967-4.575c0.571-1.561,1.063-3.148,1.457-4.761
			c0.392-1.612,0.687-3.248,0.841-4.897c0.154-1.648,0.167-3.313-0.026-4.952c-0.095-0.82-0.242-1.633-0.45-2.431
			c-0.205-0.795-0.489-1.575-0.77-2.355c-0.57-1.555-1.222-3.081-1.995-4.542c-0.772-1.459-1.669-2.855-2.743-4.101
			c-1.071-1.243-2.331-2.328-3.769-3.103c-1.435-0.779-3.034-1.224-4.661-1.352c-1.629-0.133-3.274,0.03-4.887,0.344
			c-3.238,0.625-6.338,1.847-9.56,2.748c-1.61,0.442-3.233,0.828-4.866,1.167c-1.633,0.337-3.273,0.64-4.925,0.87
			c-1.651,0.234-3.308,0.421-4.972,0.534c-1.662,0.098-3.335,0.148-4.995-0.004c-0.015-0.002-0.027-0.016-0.026-0.031
			C26.503,86.973,26.517,86.962,26.531,86.962z"/>
		<path fill="#A89B8A" d="M28.827,93.975c5.74-3.266,11.611-6.339,17.762-8.81c3.084-1.202,6.243-2.285,9.549-2.799
			c0.826-0.123,1.662-0.204,2.504-0.213c0.421-0.004,0.844,0.011,1.266,0.051c0.424,0.043,0.833,0.11,1.246,0.184
			c1.646,0.3,3.256,0.808,4.762,1.539c1.508,0.727,2.905,1.675,4.143,2.798s2.313,2.416,3.222,3.811
			c1.822,2.797,2.986,5.964,3.714,9.192c0.361,1.618,0.614,3.258,0.779,4.904c0.157,1.646,0.276,3.304,0.195,4.96
			c-0.071,1.654-0.26,3.299-0.51,4.933c-0.253,1.634-0.562,3.258-0.944,4.866c-0.003,0.015-0.019,0.025-0.034,0.021
			c-0.015-0.003-0.024-0.02-0.021-0.034c0.362-1.61,0.652-3.236,0.887-4.869c0.229-1.633,0.398-3.276,0.45-4.923
			c0.061-1.645-0.076-3.29-0.251-4.929c-0.185-1.637-0.454-3.264-0.831-4.864c-0.749-3.197-1.931-6.319-3.745-9.052
			c-0.906-1.363-1.971-2.62-3.189-3.707c-1.218-1.087-2.588-2-4.063-2.694c-1.474-0.695-3.046-1.172-4.652-1.447
			c-0.4-0.068-0.808-0.128-1.205-0.165c-0.401-0.034-0.805-0.044-1.21-0.036c-0.809,0.019-1.619,0.105-2.425,0.235
			c-1.612,0.255-3.202,0.672-4.771,1.15c-1.57,0.477-3.121,1.028-4.655,1.622c-6.152,2.359-12.049,5.351-17.943,8.327
			c-0.014,0.007-0.031,0.001-0.039-0.013C28.809,93.999,28.813,93.982,28.827,93.975z"/>
		<path fill="#A89B8A" d="M31.278,98.312c1.172-1.121,2.344-2.243,3.543-3.339c1.205-1.09,2.436-2.151,3.703-3.171
			c2.537-2.035,5.233-3.89,8.123-5.419c1.449-0.753,2.949-1.417,4.5-1.951c1.552-0.527,3.156-0.915,4.79-1.109
			c1.634-0.192,3.296-0.184,4.923,0.068c1.623,0.259,3.213,0.693,4.736,1.301c3.052,1.205,5.801,3.138,8.003,5.554
			c2.213,2.415,3.889,5.279,5.081,8.308c1.19,3.036,1.912,6.236,2.289,9.462c0.376,3.229,0.408,6.489,0.195,9.727
			c-0.001,0.016-0.015,0.028-0.03,0.027s-0.028-0.014-0.026-0.03c0.174-3.237,0.104-6.49-0.31-9.703
			c-0.413-3.209-1.169-6.383-2.385-9.377c-1.207-2.991-2.891-5.806-5.088-8.161c-2.188-2.358-4.899-4.227-7.897-5.38
			c-1.495-0.578-3.06-0.986-4.644-1.22c-1.581-0.228-3.192-0.218-4.778-0.014c-1.588,0.199-3.149,0.592-4.668,1.11
			c-1.52,0.514-2.996,1.161-4.429,1.896c-2.876,1.454-5.565,3.268-8.14,5.225c-2.58,1.954-5.006,4.107-7.455,6.237
			c-0.012,0.011-0.029,0.009-0.04-0.003C31.265,98.339,31.267,98.322,31.278,98.312z"/>
		<path fill="#A89B8A" d="M34.935,101.671c0.803-1.316,1.649-2.607,2.536-3.872c0.896-1.26,1.838-2.486,2.843-3.665
			c2.012-2.351,4.299-4.495,6.901-6.214c1.306-0.85,2.69-1.584,4.14-2.169c1.449-0.581,2.965-1,4.508-1.249
			c3.088-0.492,6.263-0.29,9.275,0.486c3.019,0.773,5.857,2.206,8.297,4.128c2.447,1.919,4.502,4.298,6.188,6.89
			c1.685,2.599,3.013,5.413,4.061,8.316c1.047,2.906,1.815,5.906,2.356,8.942c0.002,0.016-0.008,0.03-0.023,0.033
			c-0.016,0.003-0.03-0.007-0.033-0.022c-0.577-3.027-1.382-6.011-2.461-8.893c-1.08-2.88-2.437-5.662-4.138-8.218
			c-1.696-2.556-3.75-4.887-6.179-6.753c-2.419-1.871-5.216-3.248-8.18-3.979c-2.963-0.726-6.073-0.886-9.071-0.372
			c-1.5,0.253-2.969,0.676-4.379,1.243c-1.414,0.563-2.768,1.272-4.05,2.098c-2.579,1.634-4.855,3.724-6.911,5.998
			c-1.031,1.137-2.003,2.329-2.933,3.555c-0.938,1.22-1.823,2.48-2.699,3.749c-0.009,0.013-0.026,0.017-0.04,0.007
			C34.931,101.701,34.927,101.684,34.935,101.671z"/>
		<path fill="#A89B8A" d="M39.136,104.046c0.211-1.393,0.622-2.753,1.142-4.065c0.531-1.31,1.186-2.568,1.936-3.769
			c1.505-2.397,3.419-4.543,5.63-6.326c1.114-0.882,2.306-1.669,3.563-2.337c1.258-0.664,2.583-1.204,3.947-1.608
			c1.367-0.4,2.771-0.662,4.189-0.78c1.409-0.12,2.832-0.143,4.246-0.036c1.414,0.104,2.82,0.34,4.188,0.713
			c1.368,0.371,2.698,0.878,3.972,1.492c2.552,1.229,4.876,2.871,7.028,4.684c2.15,1.821,4.14,3.818,6.039,5.89
			c1.897,2.075,3.704,4.229,5.459,6.422c0.01,0.013,0.008,0.031-0.005,0.041c-0.012,0.01-0.03,0.008-0.04-0.004
			c-1.783-2.169-3.618-4.297-5.54-6.342c-1.924-2.042-3.935-4.006-6.096-5.787c-2.158-1.78-4.479-3.381-7.006-4.567
			c-1.261-0.592-2.572-1.076-3.918-1.427c-1.347-0.352-2.726-0.568-4.113-0.657c-1.389-0.086-2.782-0.047-4.17,0.089
			c-1.38,0.133-2.747,0.407-4.07,0.813c-1.327,0.401-2.609,0.941-3.834,1.59c-1.227,0.645-2.393,1.406-3.484,2.262
			c-2.199,1.697-4.1,3.779-5.65,6.093c-0.777,1.157-1.461,2.378-2.029,3.654c-0.578,1.271-1.031,2.603-1.326,3.974
			c-0.003,0.016-0.018,0.025-0.034,0.021C39.144,104.075,39.134,104.061,39.136,104.046z"/>
		<path fill="#A89B8A" d="M43.255,105.307c0.182-1.286,0.342-2.575,0.537-3.862c0.205-1.286,0.453-2.569,0.807-3.831
			c0.35-1.263,0.83-2.496,1.463-3.657c0.631-1.159,1.431-2.236,2.381-3.166c0.956-0.923,2.055-1.693,3.229-2.306
			c1.176-0.609,2.424-1.062,3.693-1.403c1.271-0.337,2.568-0.563,3.869-0.71s2.608-0.219,3.914-0.225
			c2.615-0.017,5.224,0.228,7.793,0.662c2.571,0.434,5.106,1.059,7.594,1.827c2.486,0.774,4.925,1.693,7.306,2.741
			c1.19,0.524,2.366,1.081,3.523,1.676c1.154,0.597,2.296,1.221,3.388,1.929c0.013,0.008,0.017,0.026,0.008,0.04
			c-0.008,0.014-0.026,0.017-0.038,0.009c-1.099-0.69-2.249-1.297-3.41-1.876c-1.163-0.576-2.344-1.114-3.539-1.62
			c-2.391-1.01-4.835-1.89-7.32-2.625c-2.485-0.738-5.014-1.33-7.57-1.733c-2.557-0.402-5.144-0.615-7.728-0.571
			c-2.579,0.055-5.166,0.336-7.64,1.023c-1.235,0.341-2.438,0.796-3.569,1.384c-1.131,0.583-2.187,1.314-3.105,2.191
			c-0.926,0.869-1.713,1.885-2.346,2.994c-0.639,1.108-1.117,2.305-1.512,3.53c-0.393,1.228-0.682,2.491-0.933,3.763
			c-0.262,1.27-0.47,2.554-0.737,3.826c-0.004,0.016-0.02,0.025-0.034,0.022C43.263,105.335,43.253,105.321,43.255,105.307z"/>
		<path fill="#A89B8A" d="M55.831,134.768c-1.385-1.809-2.629-3.73-3.719-5.737c-1.082-2.011-2.006-4.109-2.781-6.26
			c-1.548-4.306-2.454-8.829-2.87-13.383c-0.197-2.279-0.269-4.568-0.229-6.855c0.046-2.287,0.208-4.569,0.464-6.84
			c0.523-4.542,1.436-9.031,2.654-13.429c2.439-8.801,6.091-17.243,10.66-25.133c4.587-7.88,10.107-15.227,16.526-21.697
			c0.011-0.011,0.029-0.011,0.04,0c0.012,0.011,0.012,0.029,0,0.041c-6.359,6.52-11.809,13.902-16.318,21.799
			c-4.508,7.898-8.094,16.336-10.466,25.11c-1.179,4.388-2.049,8.859-2.532,13.372c-0.246,2.255-0.391,4.521-0.434,6.789
			c-0.046,2.267,0.016,4.536,0.205,6.795c0.353,4.518,1.221,9.002,2.676,13.3c0.725,2.148,1.604,4.248,2.636,6.27
			c1.022,2.027,2.204,3.978,3.534,5.825c0.01,0.013,0.006,0.031-0.006,0.041C55.858,134.783,55.841,134.78,55.831,134.768z"/>
		<path fill="#A89B8A" d="M60.292,122.84c-2.03-0.147-4.006-0.928-5.649-2.147c-1.646-1.225-2.972-2.841-4.013-4.599
			c-1.047-1.761-1.802-3.681-2.365-5.643c-0.561-1.965-0.918-3.984-1.118-6.016c-0.189-2.033-0.218-4.078-0.107-6.115
			c0.115-2.037,0.374-4.063,0.757-6.065c0.387-2.001,0.898-3.976,1.527-5.914c0.629-1.934,1.356-3.837,2.164-5.702
			c1.611-3.733,3.541-7.322,5.701-10.76c2.164-3.438,4.563-6.724,7.158-9.843c2.594-3.127,5.478-5.995,8.453-8.747
			c2.98-2.749,6.071-5.375,9.202-7.948c0.013-0.01,0.029-0.008,0.04,0.004c0.011,0.012,0.008,0.029-0.004,0.039
			c-3.106,2.603-6.169,5.257-9.121,8.03c-2.946,2.776-5.797,5.665-8.349,8.804c-2.566,3.128-4.935,6.42-7.063,9.857
			c-2.128,3.438-4.021,7.023-5.596,10.743c-1.568,3.722-2.838,7.576-3.557,11.542c-0.368,1.98-0.608,3.983-0.72,5.993
			c-0.116,2.01-0.095,4.027,0.085,6.03c0.17,2.003,0.496,3.995,1.023,5.935c0.523,1.938,1.257,3.824,2.234,5.576
			c0.982,1.745,2.242,3.354,3.826,4.59c0.787,0.62,1.654,1.142,2.582,1.532c0.927,0.389,1.91,0.647,2.914,0.767
			c0.017,0.002,0.027,0.016,0.025,0.032C60.321,122.83,60.308,122.842,60.292,122.84z"/>
		<path fill="#A89B8A" d="M58.261,113.335c-0.851,0.234-1.76,0.26-2.633,0.097c-0.875-0.16-1.715-0.496-2.479-0.951
			c-1.531-0.922-2.754-2.291-3.664-3.815c-0.917-1.53-1.509-3.235-1.867-4.974c-0.356-1.742-0.472-3.527-0.404-5.299
			c0.077-1.773,0.333-3.533,0.724-5.259c0.396-1.726,0.932-3.415,1.563-5.064c1.271-3.296,2.93-6.426,4.81-9.401
			c0.94-1.489,1.938-2.939,2.98-4.355c0.523-0.707,1.052-1.41,1.603-2.098c0.553-0.688,1.128-1.355,1.721-2.007
			c2.378-2.602,5.036-4.927,7.823-7.066c2.795-2.133,5.726-4.079,8.74-5.879c1.508-0.9,3.037-1.763,4.586-2.588
			c1.551-0.823,3.116-1.618,4.715-2.345c0.014-0.006,0.031,0,0.038,0.014c0.006,0.015,0,0.031-0.015,0.038
			c-1.587,0.744-3.145,1.555-4.683,2.394c-1.539,0.842-3.058,1.72-4.552,2.635c-2.99,1.83-5.894,3.804-8.655,5.959
			c-2.759,2.153-5.385,4.49-7.722,7.089c-0.583,0.65-1.147,1.317-1.688,2.001c-0.541,0.687-1.061,1.39-1.575,2.098
			c-1.026,1.417-2.007,2.867-2.927,4.354c-1.838,2.974-3.447,6.093-4.67,9.359c-0.613,1.631-1.125,3.299-1.512,4.995
			c-0.391,1.694-0.65,3.419-0.732,5.152c-0.091,1.732-0.004,3.476,0.317,5.178c0.319,1.701,0.886,3.358,1.729,4.869
			c0.844,1.503,1.996,2.859,3.456,3.793c0.725,0.468,1.527,0.825,2.375,1.012c0.845,0.187,1.732,0.2,2.586,0.01
			c0.016-0.004,0.031,0.006,0.035,0.021C58.285,113.315,58.275,113.331,58.261,113.335z"/>
		<path fill="#A89B8A" d="M54.425,109.104c-0.766,0.076-1.561-0.013-2.285-0.307c-0.727-0.288-1.373-0.768-1.898-1.348
			c-0.523-0.583-0.932-1.261-1.254-1.971c-0.32-0.712-0.555-1.459-0.727-2.217c-0.348-1.519-0.428-3.083-0.371-4.629
			c0.061-1.549,0.274-3.089,0.602-4.602c0.336-1.51,0.785-3.001,1.365-4.438s1.275-2.822,2.049-4.159
			c1.559-2.671,3.441-5.139,5.545-7.391c4.209-4.509,9.309-8.146,14.858-10.792c5.557-2.644,11.564-4.28,17.658-4.98
			c0.016-0.001,0.029,0.01,0.031,0.025c0.003,0.016-0.009,0.029-0.024,0.032c-6.079,0.774-12.047,2.483-17.541,5.181
			c-5.494,2.682-10.521,6.343-14.646,10.846c-2.057,2.253-3.888,4.714-5.39,7.361c-0.755,1.321-1.423,2.69-1.989,4.1
			c-0.575,1.405-1.021,2.858-1.358,4.34c-0.347,1.479-0.581,2.985-0.667,4.5c-0.086,1.514-0.015,3.038,0.269,4.523
			c0.146,0.741,0.352,1.472,0.641,2.167s0.663,1.357,1.146,1.932c0.479,0.577,1.076,1.061,1.766,1.368
			c0.688,0.309,1.455,0.435,2.217,0.401c0.016-0.001,0.029,0.012,0.03,0.027C54.452,109.089,54.44,109.103,54.425,109.104z"/>
		<path fill="#A89B8A" d="M92.513,73.805c-2.253-0.336-4.53-0.492-6.807-0.529c-2.276-0.035-4.556,0.057-6.821,0.277
			c-4.525,0.446-9.023,1.393-13.246,3.085c-2.107,0.847-4.139,1.886-6.023,3.15c-1.883,1.263-3.613,2.757-5.093,4.472
			c-1.48,1.713-2.701,3.647-3.616,5.718c-0.915,2.068-1.535,4.27-1.872,6.504c-0.322,2.229-0.289,4.544,0.437,6.67
			c0.36,1.059,0.894,2.057,1.588,2.93c0.693,0.875,1.542,1.622,2.485,2.22c0.236,0.15,0.479,0.291,0.725,0.424
			c0.246,0.136,0.499,0.25,0.761,0.404c0.515,0.302,0.968,0.683,1.378,1.101c0.815,0.84,1.455,1.823,1.984,2.849
			c1.05,2.063,1.67,4.315,1.965,6.597c0.288,2.284,0.234,4.616-0.211,6.88c-0.443,2.262-1.295,4.458-2.573,6.391
			c-1.271,1.936-2.968,3.584-4.91,4.836c-1.942,1.259-4.112,2.131-6.341,2.703c-0.143,0.037-0.289-0.049-0.326-0.192
			c-0.004-0.017-0.007-0.035-0.008-0.052c-0.559-9.689-1.063-19.395-0.971-29.115c0.047-4.858,0.256-9.72,0.712-14.562
			c0.454-4.841,1.163-9.66,2.149-14.423c0.983-4.763,2.242-9.468,3.721-14.099c1.475-4.633,3.177-9.19,5.018-13.687
			c3.691-8.992,7.935-17.739,12.388-26.367c0.063-0.122,0.212-0.169,0.334-0.106c0.015,0.008,0.03,0.018,0.043,0.028
			c4.269,3.46,7.895,7.663,10.912,12.234c3.021,4.576,5.451,9.521,7.404,14.634c1.95,5.117,3.43,10.408,4.467,15.78
			c0.518,2.688,0.923,5.397,1.196,8.121c0.27,2.723,0.419,5.463,0.343,8.205c-0.082,2.739-0.347,5.47-0.781,8.174
			c-0.436,2.704-1.041,5.382-1.854,8c-0.815,2.615-1.836,5.177-3.172,7.579c-0.669,1.199-1.418,2.357-2.273,3.437
			c-0.854,1.078-1.816,2.08-2.905,2.932c-1.088,0.852-2.308,1.549-3.622,1.996c-1.313,0.448-2.707,0.64-4.092,0.597
			c-1.387-0.043-2.765-0.369-4.026-0.942c-1.266-0.571-2.41-1.377-3.428-2.306c-1.02-0.931-1.916-1.983-2.727-3.091
			c-0.811-1.11-1.535-2.277-2.205-3.472s-1.287-2.417-1.878-3.65c-0.594-1.231-1.159-2.476-1.759-3.698
			c-0.036-0.076-0.006-0.167,0.067-0.205l0.004-0.001c1.349-0.691,2.629-1.549,3.815-2.503c1.19-0.956,2.264-2.046,3.213-3.243
			c0.95-1.193,1.79-2.477,2.481-3.836c0.688-1.358,1.233-2.797,1.516-4.291c0.14-0.746,0.212-1.505,0.188-2.261
			c-0.021-0.754-0.154-1.507-0.343-2.241c-0.193-0.731-0.471-1.442-0.874-2.077c-0.399-0.635-0.93-1.185-1.549-1.61
			c-0.618-0.427-1.316-0.736-2.039-0.966s-1.471-0.384-2.225-0.497c-1.511-0.223-3.045-0.291-4.576-0.317
			c-1.531-0.023-3.066,0.003-4.6,0.042c-1.533,0.053-3.078,0.06-4.614-0.028c-3.071-0.169-6.141-0.681-9.056-1.692
			c-2.916-1.003-5.646-2.531-8.041-4.47c-2.404-1.934-4.477-4.239-6.361-6.664l0.157-0.049c-0.093,1.343-0.233,2.675-0.33,4.013
			c-0.101,1.337-0.179,2.675-0.22,4.016c-0.086,2.679-0.039,5.363,0.203,8.033c0.245,2.667,0.684,5.322,1.424,7.898
			c0.738,2.571,1.785,5.069,3.258,7.308c0.734,1.117,1.576,2.167,2.52,3.115c0.945,0.947,1.992,1.792,3.121,2.512
			c1.127,0.72,2.334,1.315,3.587,1.786c0.628,0.234,1.265,0.439,1.911,0.617c0.646,0.181,1.293,0.354,1.941,0.524l3.9,0.996
			c1.299,0.337,2.597,0.686,3.863,1.136c1.265,0.45,2.502,1.014,3.596,1.801c1.099,0.781,2.023,1.79,2.756,2.917
			c0.009,0.013,0.005,0.03-0.008,0.039c-0.014,0.009-0.031,0.005-0.039-0.008c-0.732-1.121-1.654-2.122-2.746-2.896
			c-1.09-0.78-2.32-1.339-3.582-1.785c-1.264-0.447-2.561-0.793-3.859-1.127l-3.902-0.988c-0.649-0.169-1.299-0.342-1.945-0.522
			c-0.646-0.176-1.289-0.381-1.918-0.616c-1.26-0.471-2.475-1.066-3.609-1.789c-1.137-0.721-2.191-1.569-3.143-2.521
			c-0.953-0.952-1.801-2.005-2.541-3.128c-1.484-2.248-2.54-4.756-3.287-7.335c-0.746-2.584-1.193-5.247-1.443-7.921
			c-0.248-2.677-0.3-5.368-0.219-8.052c0.04-1.343,0.115-2.684,0.213-4.023c0.094-1.339,0.233-2.677,0.322-4.011
			c0.004-0.049,0.045-0.085,0.094-0.083c0.025,0.002,0.049,0.016,0.064,0.034c1.885,2.415,3.951,4.706,6.344,6.621
			c2.383,1.921,5.094,3.432,7.988,4.422c2.895,0.999,5.943,1.501,9,1.664c1.529,0.083,3.061,0.075,4.595,0.019
			c1.536-0.042,3.073-0.071,4.61-0.05c1.537,0.023,3.079,0.089,4.609,0.311c0.764,0.113,1.524,0.268,2.266,0.501
			c0.74,0.234,1.462,0.552,2.109,0.997c0.648,0.442,1.207,1.02,1.626,1.684c0.422,0.663,0.71,1.4,0.909,2.15
			c0.195,0.751,0.332,1.521,0.356,2.302c0.026,0.779-0.048,1.558-0.188,2.321c-0.286,1.527-0.838,2.99-1.534,4.369
			c-0.699,1.379-1.547,2.68-2.508,3.889c-0.482,0.604-0.99,1.186-1.534,1.738c-0.544,0.55-1.119,1.067-1.72,1.555
			c-1.205,0.971-2.487,1.834-3.871,2.546l0.071-0.206c0.604,1.229,1.17,2.471,1.764,3.699c0.593,1.228,1.207,2.444,1.874,3.629
			c0.668,1.186,1.388,2.342,2.189,3.437c0.803,1.094,1.688,2.129,2.688,3.039c0.999,0.909,2.116,1.691,3.344,2.243
			c1.225,0.555,2.557,0.867,3.899,0.907s2.699-0.148,3.969-0.584c1.272-0.435,2.457-1.113,3.517-1.945
			c1.062-0.833,2.003-1.816,2.843-2.877c0.84-1.063,1.578-2.206,2.236-3.392c1.317-2.376,2.325-4.917,3.132-7.513
			c0.803-2.6,1.402-5.263,1.831-7.95c0.428-2.688,0.688-5.405,0.766-8.125c0.071-2.718-0.081-5.443-0.353-8.153
			c-0.276-2.709-0.684-5.407-1.202-8.081c-1.041-5.349-2.521-10.615-4.469-15.703c-1.95-5.083-4.373-9.997-7.38-14.535
			c-3.004-4.532-6.606-8.689-10.835-12.105l0.377-0.08c-4.435,8.627-8.656,17.371-12.322,26.347
			c-3.659,8.972-6.736,18.203-8.688,27.693C47.453,87,46.749,91.799,46.296,96.62c-0.453,4.823-0.661,9.667-0.709,14.514
			c-0.047,4.847,0.061,9.696,0.242,14.542c0.177,4.847,0.425,9.692,0.693,14.537l-0.334-0.245c2.184-0.555,4.302-1.401,6.191-2.619
			c1.891-1.212,3.537-2.804,4.774-4.678c1.243-1.87,2.077-4.002,2.517-6.208c0.439-2.208,0.498-4.491,0.223-6.729
			c-0.282-2.234-0.887-4.443-1.902-6.45c-0.512-0.998-1.128-1.949-1.9-2.747c-0.386-0.397-0.813-0.754-1.281-1.032
			c-0.229-0.136-0.495-0.26-0.747-0.4c-0.254-0.139-0.505-0.286-0.749-0.442c-0.978-0.626-1.859-1.41-2.579-2.325
			c-0.721-0.915-1.271-1.959-1.641-3.059c-0.37-1.101-0.562-2.254-0.616-3.406c-0.056-1.154,0.023-2.309,0.193-3.445
			c0.352-2.269,0.989-4.492,1.928-6.588c0.937-2.096,2.184-4.052,3.691-5.781c1.507-1.731,3.264-3.235,5.171-4.502
			c1.908-1.269,3.964-2.301,6.09-3.14c4.26-1.674,8.781-2.594,13.32-3.012c2.273-0.206,4.557-0.282,6.837-0.232
			c2.28,0.053,4.56,0.225,6.813,0.575c0.016,0.002,0.026,0.018,0.023,0.033C92.543,73.796,92.528,73.807,92.513,73.805z"/>
		<path fill="#A89B8A" d="M93.508,84.787c-0.951-0.354-1.921-0.652-2.899-0.915c-0.977-0.271-1.961-0.513-2.95-0.731
			c-1.979-0.438-3.971-0.813-5.976-1.095c-4.004-0.578-8.05-0.956-12.096-0.827c-2.021,0.069-4.04,0.262-6.025,0.639
			c-1.983,0.377-3.939,0.939-5.773,1.783c-1.832,0.836-3.545,1.973-4.926,3.45c-1.387,1.471-2.406,3.278-3,5.217
			c-0.004,0.015-0.02,0.023-0.035,0.019c-0.016-0.005-0.023-0.021-0.02-0.036c0.559-1.957,1.552-3.801,2.928-5.317
			c1.371-1.523,3.088-2.71,4.932-3.594c1.85-0.882,3.821-1.479,5.822-1.889c2.003-0.409,4.039-0.632,6.078-0.731
			c4.079-0.192,8.177,0.062,12.203,0.719c2.011,0.342,4.011,0.749,5.982,1.272c1.966,0.531,3.926,1.126,5.777,1.981
			c0.015,0.007,0.021,0.023,0.014,0.038C93.538,84.786,93.521,84.792,93.508,84.787z"/>
	</g>
</g>
</svg>
