<?xml version="1.0" encoding="utf-8"?>
<!-- Generator: Adobe Illustrator 15.0.0, SVG Export Plug-In . SVG Version: 6.00 Build 0)  -->
<!DOCTYPE svg PUBLIC "-//W3C//DTD SVG 1.1//EN" "http://www.w3.org/Graphics/SVG/1.1/DTD/svg11.dtd">
<svg version="1.1" xmlns="http://www.w3.org/2000/svg" xmlns:xlink="http://www.w3.org/1999/xlink" x="0px" y="0px" width="108px"
	 height="108px" viewBox="0 0 108 108" enable-background="new 0 0 108 108" xml:space="preserve">
<g id="Vorlage" display="none">
</g>
<g id="Ebene_6">
</g>
<g id="Flächen">
	<path fill="#A89B8A" d="M30,0C13.434,0,0,13.434,0,30v48c0,16.566,13.434,30,30,30h48c16.566,0,30-13.434,30-30V30
		c0-16.566-13.434-30-30-30H30z M89,14c3.313,0,6,2.688,6,6c0,3.313-2.688,6-6,6s-6-2.688-6-6C83,16.688,85.688,14,89,14z M53,26
		c16.566,0,30,13.434,30,30c0,16.566-13.434,30-30,30S23,72.566,23,56C23,39.434,36.434,26,53,26z M53,38c-9.941,0-18,8.059-18,18
		c0,9.941,8.059,18,18,18s18-8.059,18-18C71,46.059,62.941,38,53,38z"/>
</g>
<g id="Bilder">
</g>
<g id="Texte">
</g>
<g id="Buttons">
</g>
<g id="Logo">
</g>
</svg>
