<?xml version="1.0" encoding="utf-8"?>
<!-- Generator: Adobe Illustrator 15.0.0, SVG Export Plug-In . SVG Version: 6.00 Build 0)  -->
<!DOCTYPE svg PUBLIC "-//W3C//DTD SVG 1.1//EN" "http://www.w3.org/Graphics/SVG/1.1/DTD/svg11.dtd">
<svg version="1.1" xmlns="http://www.w3.org/2000/svg" xmlns:xlink="http://www.w3.org/1999/xlink" x="0px" y="0px" width="108px"
	 height="108px" viewBox="0 0 108 108" enable-background="new 0 0 108 108" xml:space="preserve">
<g id="Vorlage" display="none">
</g>
<g id="Ebene_6">
</g>
<g id="Flächen">
	<path fill="#A89B8A" d="M36.333,84H21.194V42h15.139V84z M28.497,34.302c-4.626,0-7.716-3.084-7.716-7.2
		c0-4.116,3.084-7.2,8.226-7.2c4.626,0,7.717,3.084,7.717,7.2C36.724,31.218,33.64,34.302,28.497,34.302z M90.333,84H75.681V61.044
		c0-6.349-3.906-7.812-5.369-7.812c-1.465,0-6.349,0.978-6.349,7.812c0,0.978,0,22.956,0,22.956H48.825V42h15.138v5.862
		C65.913,44.442,69.819,42,77.146,42s13.188,5.862,13.188,19.044V84z M30,0C13.434,0,0,13.434,0,30v48c0,16.566,13.434,30,30,30h48
		c16.566,0,30-13.434,30-30V30c0-16.566-13.434-30-30-30H30z"/>
</g>
<g id="Bilder">
</g>
<g id="Texte">
</g>
<g id="Buttons">
</g>
<g id="Logo">
</g>
</svg>
